# xmcd CD database file
#
# Track frame offsets:
#	150
#	35526
#	63028
#	83861
#	111416
#	143318
#	153802
#
# Disc length: 2377 seconds
#
# Revision: 2
# Processed by: cddbd v1.4PL0 Copyright (c) Steve Scherf et al.
# Submitted via: CDex 1.51
#
DISCID=4b094707
DTITLE=Medwyn Goodall - Sapphire
DYEAR=1995
DGENRE=New Age
TTITLE0=Medwyn Goodall - Sapphire
TTITLE1=Medwyn Goodall - Flight Of The Eagle
TTITLE2=Medwyn Goodall - Watching The Clouds
TTITLE3=Medwyn Goodall - Rising Currents
TTITLE4=Medwyn Goodall - Cirrus
TTITLE5=Medwyn Goodall - Beyond The  Valleys
TTITLE6=Medwyn Goodall - Reaching For The Sky
EXTD=YEAR: 1995
EXTT0=
EXTT1=
EXTT2=
EXTT3=
EXTT4=
EXTT5=
EXTT6=
PLAYORDER=
